<svg viewBox="0 0 34 34" fill="none" xmlns="http://www.w3.org/2000/svg">
    <rect x="1.25" y="1.25" width="31.5" height="31.5" rx="15.75" fill="#DADADA"/>
    <rect x="1.25" y="1.25" width="31.5" height="31.5" rx="15.75" stroke="url(#paint0_linear_38_289)" stroke-width="1.5"/>
    <path d="M18.7767 12.7373L19.7698 11.7449C20.0331 11.4817 20.3902 11.3337 20.7626 11.3337C21.1349 11.3337 21.492 11.4817 21.7553 11.7449C22.0186 12.0082 22.1665 12.3653 22.1665 12.7377C22.1665 13.11 22.0186 13.4671 21.7553 13.7304L20.7629 14.7235M18.7767 12.7373L12.9443 18.5697C12.2041 19.3106 11.8337 19.6804 11.5815 20.1316C11.3293 20.5828 11.0757 21.6474 10.8335 22.6667C11.8521 22.4245 12.9174 22.1709 13.3686 21.9187C13.8198 21.6666 14.1903 21.2961 14.9305 20.5559L20.7629 14.7235M18.7767 12.7373L20.7629 14.7235M15.7918 22.6667H20.0418" stroke="#141414" stroke-linecap="round" stroke-linejoin="round"/>
    <defs>
        <linearGradient id="paint0_linear_38_289" x1="2" y1="17" x2="32" y2="17" gradientUnits="userSpaceOnUse">
            <stop stop-color="#1A387F"/>
            <stop offset="1" stop-color="#601386"/>
        </linearGradient>
    </defs>
</svg>
