<svg width="30" height="30" viewBox="0 0 30 30" fill="none" xmlns="http://www.w3.org/2000/svg">
    <path fill-rule="evenodd" clip-rule="evenodd" d="M15 28.3333C22.3642 28.3333 28.3333 22.3642 28.3333 15C28.3333 7.63583 22.3642 1.66667 15 1.66667C7.63583 1.66667 1.66667 7.63583 1.66667 15C1.66667 22.3642 7.63583 28.3333 15 28.3333ZM15 30C23.2842 30 30 23.2842 30 15C30 6.71583 23.2842 0 15 0C6.71583 0 0 6.71583 0 15C0 23.2842 6.71583 30 15 30Z" fill="url(#paint0_linear_182_997)"/>
    <path fill-rule="evenodd" clip-rule="evenodd" d="M8.91251 18.3334C10.2083 21.5267 12.5958 23.3334 15 23.3334C17.405 23.3334 19.7917 21.5267 21.0875 18.3334H8.91251ZM15 25.0001C11.635 25.0001 8.71834 22.4601 7.28501 18.7501L7.24334 18.6426C6.87167 17.6501 7.66667 16.6667 8.72751 16.6667H21.2733C22.3342 16.6667 23.13 17.6501 22.7567 18.6426L22.7158 18.7501C21.2817 22.4601 18.365 25.0001 15 25.0001Z" fill="url(#paint1_linear_182_997)"/>
    <path d="M12.7516 13.7018C12.86 13.4034 12.8275 13.0393 12.7383 12.7076C12.6305 12.3258 12.4586 11.9651 12.23 11.6409C11.7458 10.9501 10.9433 10.3159 9.85912 10.2693C8.73662 10.2226 7.89828 10.9351 7.38162 11.6909C7.13386 12.055 6.93887 12.4522 6.80245 12.8709C6.68328 13.2426 6.61995 13.6226 6.66162 13.9268C6.67119 13.9961 6.69809 14.0619 6.73982 14.1181C6.78155 14.1744 6.83677 14.2191 6.90039 14.2484C6.964 14.2776 7.03396 14.2903 7.10379 14.2854C7.17363 14.2805 7.24109 14.258 7.29995 14.2201C7.63328 14.0068 7.98245 13.7143 8.30578 13.4443C8.45245 13.3209 8.59495 13.2026 8.72662 13.0984C9.19495 12.7284 9.55995 12.5176 9.86162 12.5026C10.1491 12.4884 10.4808 12.6526 10.8991 12.9659C11.0491 13.0776 11.1941 13.1959 11.3441 13.3193L11.5066 13.4518C11.71 13.6159 11.9266 13.7843 12.145 13.9159C12.1976 13.9477 12.2567 13.9674 12.3178 13.9736C12.379 13.9799 12.4408 13.9725 12.4988 13.952C12.5568 13.9316 12.6096 13.8985 12.6533 13.8552C12.697 13.812 12.7306 13.7595 12.7516 13.7018ZM17.1775 13.7018C17.0691 13.4034 17.1025 13.0393 17.1916 12.7076C17.285 12.3609 17.4575 11.9884 17.7 11.6409C18.1833 10.9501 18.9866 10.3159 20.0708 10.2693C21.1925 10.2226 22.0316 10.9351 22.5483 11.6909C22.8099 12.0743 23.0049 12.4893 23.1274 12.8709C23.2458 13.2426 23.3091 13.6226 23.2675 13.9268C23.2578 13.996 23.2309 14.0617 23.1892 14.1178C23.1476 14.1739 23.0924 14.2186 23.0289 14.2478C22.9654 14.277 22.8956 14.2898 22.8259 14.2849C22.7562 14.2801 22.6888 14.2578 22.6299 14.2201C22.2966 14.0068 21.9466 13.7143 21.6241 13.4443C21.4854 13.3272 21.3451 13.2119 21.2033 13.0984C20.7341 12.7284 20.37 12.5176 20.0675 12.5026C19.7808 12.4884 19.4483 12.6526 19.0308 12.9659C18.8808 13.0776 18.7358 13.1959 18.5858 13.3193L18.4225 13.4518C18.2207 13.6207 18.0077 13.7758 17.785 13.9159C17.7323 13.9478 17.6731 13.9677 17.6119 13.974C17.5506 13.9803 17.4887 13.973 17.4306 13.9525C17.3725 13.932 17.3196 13.8989 17.2759 13.8555C17.2321 13.8122 17.1985 13.7597 17.1775 13.7018Z" fill="url(#paint2_linear_182_997)"/>
    <defs>
        <linearGradient id="paint0_linear_182_997" x1="0" y1="15" x2="30" y2="15" gradientUnits="userSpaceOnUse">
            <stop stop-color="#1A387F"/>
            <stop offset="1" stop-color="#601386"/>
        </linearGradient>
        <linearGradient id="paint1_linear_182_997" x1="7.15051" y1="20.8334" x2="22.8502" y2="20.8334" gradientUnits="userSpaceOnUse">
            <stop stop-color="#1A387F"/>
            <stop offset="1" stop-color="#601386"/>
        </linearGradient>
        <linearGradient id="paint2_linear_182_997" x1="6.6488" y1="12.2768" x2="23.2803" y2="12.2768" gradientUnits="userSpaceOnUse">
            <stop stop-color="#1A387F"/>
            <stop offset="1" stop-color="#601386"/>
        </linearGradient>
    </defs>
</svg>
