<svg viewBox="0 0 24 24" fill="none" xmlns="http://www.w3.org/2000/svg">
    <path d="M11.9999 21.998C8.63191 22.038 5.17191 21.564 3.79291 20.61C3.07534 20.1179 2.52183 19.4219 2.20391 18.612C1.69591 17.302 2.18191 15.614 3.15391 12.237C4.23491 8.488 5.74591 7.5 9.64991 7.5H13.4299C16.9869 7.5 18.5029 8.37 19.4999 11" stroke-width="1.5" stroke-linecap="round" stroke-linejoin="round"/>
    <path d="M7 8V6.364C7 3.954 9.015 2 11.5 2C13.985 2 16 3.954 16 6.364V8M10.5 11H12.5M14.142 14.442C15.349 13.711 16.402 14.005 17.035 14.475C17.294 14.667 17.424 14.763 17.5 14.763C17.576 14.763 17.706 14.667 17.965 14.475C18.598 14.005 19.651 13.711 20.858 14.442C22.442 15.402 22.8 18.567 19.148 21.237C18.451 21.746 18.104 22 17.5 22C16.896 22 16.549 21.746 15.853 21.237C12.2 18.567 12.558 15.401 14.142 14.442Z" stroke-width="1.5" stroke-linecap="round" stroke-linejoin="round"/>
</svg>
