<svg width="36" height="34" viewBox="0 0 36 34" fill="none" xmlns="http://www.w3.org/2000/svg">
    <path d="M26.25 24.7917C30 29.7501 35.9235 26.088 34.5 21.2501C32.3625 13.984 31.2 9.93941 30.5955 7.80308C30.423 7.19112 30.0416 6.65001 29.5102 6.26373C28.9789 5.87745 28.3275 5.6676 27.657 5.66675H8.34295C6.96595 5.66675 5.76595 6.55216 5.43145 7.813C4.16995 12.556 3.04945 16.7196 1.71595 21.2501C0.293949 26.088 6.21595 29.7501 9.96595 24.7917" stroke="url(#paint0_linear_182_1086)" stroke-width="1.5" stroke-linecap="round" stroke-linejoin="round"/>
    <path d="M24 5.66675V8.50008C24 9.25153 23.6839 9.9722 23.1213 10.5036C22.5587 11.0349 21.7956 11.3334 21 11.3334H15C14.2044 11.3334 13.4413 11.0349 12.8787 10.5036C12.3161 9.9722 12 9.25153 12 8.50008V5.66675M12 22.6667C12.7956 22.6667 13.5587 22.3682 14.1213 21.8369C14.6839 21.3055 15 20.5849 15 19.8334C15 19.082 14.6839 18.3613 14.1213 17.8299C13.5587 17.2986 12.7956 17.0001 12 17.0001C11.2044 17.0001 10.4413 17.2986 9.87868 17.8299C9.31607 18.3613 9 19.082 9 19.8334C9 20.5849 9.31607 21.3055 9.87868 21.8369C10.4413 22.3682 11.2044 22.6667 12 22.6667ZM24 22.6667C24.7956 22.6667 25.5587 22.3682 26.1213 21.8369C26.6839 21.3055 27 20.5849 27 19.8334C27 19.082 26.6839 18.3613 26.1213 17.8299C25.5587 17.2986 24.7956 17.0001 24 17.0001C23.2044 17.0001 22.4413 17.2986 21.8787 17.8299C21.3161 18.3613 21 19.082 21 19.8334C21 20.5849 21.3161 21.3055 21.8787 21.8369C22.4413 22.3682 23.2044 22.6667 24 22.6667Z" stroke="url(#paint1_linear_182_1086)" stroke-width="1.5" stroke-linecap="round" stroke-linejoin="round"/>
    <defs>
        <linearGradient id="paint0_linear_182_1086" x1="1.49988" y1="16.4096" x2="34.7164" y2="16.4096" gradientUnits="userSpaceOnUse">
            <stop stop-color="#1A387F"/>
            <stop offset="1" stop-color="#601386"/>
        </linearGradient>
        <linearGradient id="paint1_linear_182_1086" x1="9" y1="14.1667" x2="27" y2="14.1667" gradientUnits="userSpaceOnUse">
            <stop stop-color="#1A387F"/>
            <stop offset="1" stop-color="#601386"/>
        </linearGradient>
    </defs>
</svg>
