<svg width="73" height="73" viewBox="0 0 73 73" fill="none" xmlns="http://www.w3.org/2000/svg">
    <path d="M12.9817 57.3201C13.666 62.3997 17.8727 66.3813 22.9948 66.6155C27.3018 66.8132 31.6788 66.9166 36.4998 66.9166C41.3209 66.9166 45.6978 66.8132 50.0048 66.6124C55.127 66.3813 59.3336 62.3997 60.018 57.3201C60.4651 54.0047 60.8332 50.6072 60.8332 47.1458C60.8332 43.6843 60.4651 40.2868 60.018 36.9714C59.3336 31.8918 55.127 27.9103 50.0048 27.6761C45.5061 27.4705 41.0032 27.37 36.4998 27.3749C31.6788 27.3749 27.3018 27.4783 22.9948 27.6791C17.8727 27.9103 13.666 31.8918 12.9817 36.9714C12.5315 40.2868 12.1665 43.6843 12.1665 47.1458C12.1665 50.6072 12.5345 54.0047 12.9817 57.3201Z" stroke="#F6F6F6" stroke-width="3" stroke-linecap="round" stroke-linejoin="round"/>
    <path d="M22.8125 27.3749V19.7708C22.8125 16.1406 24.2546 12.6591 26.8215 10.0922C29.3884 7.52532 32.8698 6.08325 36.5 6.08325C40.1302 6.08325 43.6116 7.52532 46.1785 10.0922C48.7454 12.6591 50.1875 16.1406 50.1875 19.7708V27.3749M36.4878 47.1458H36.5182" stroke="#F6F6F6" stroke-width="3" stroke-linecap="round" stroke-linejoin="round"/>
</svg>
