<svg width="53" height="53" viewBox="0 0 53 53" fill="none" xmlns="http://www.w3.org/2000/svg">
    <path d="M24.4444 18.5363H48.1056C46.8502 15.1572 44.8464 12.171 42.094 9.57775C39.3436 6.98642 36.206 5.248 32.6813 4.3625L24.4444 18.5363ZM18.4931 24.2863L30.4388 3.7875C29.9117 3.69167 29.2562 3.61979 28.4723 3.57188C27.6884 3.52396 27.0309 3.5 26.5 3.5C23.3375 3.5 20.3906 4.09896 17.6594 5.29688C14.9281 6.49479 12.5084 8.1 10.4 10.1125L18.4931 24.2863ZM4.21877 32.25H20.5488L8.83314 11.8605C7.15031 13.9343 5.84122 16.1941 4.90589 18.6398C3.97056 21.0854 3.50193 23.7055 3.50002 26.5C3.50002 27.5063 3.56039 28.477 3.68114 29.4124C3.80189 30.3477 3.9811 31.2936 4.21877 32.25ZM20.4309 48.6375L28.6333 34.4638H4.89152C6.14885 37.8428 8.17189 40.829 10.9606 43.4223C13.7494 46.0155 16.9071 47.7539 20.4338 48.6375M26.5 49.5C29.6625 49.5 32.6094 48.901 35.3406 47.7031C38.0719 46.5052 40.4917 44.9 42.6 42.8875L34.5069 28.7138L22.6734 49.1033C23.2005 49.2355 23.8263 49.3352 24.5508 49.4023C25.2753 49.4693 25.925 49.5019 26.5 49.5ZM44.1698 41.1395C45.7031 39.1749 46.9748 36.9152 47.9849 34.3603C48.995 31.8053 49.5 29.1853 49.5 26.5C49.5 25.4938 49.4406 24.5239 49.3218 23.5905C49.2029 22.6571 49.0228 21.7103 48.7813 20.75H32.4513L44.1698 41.1395ZM26.5 52.375C22.9389 52.375 19.5847 51.6946 16.4375 50.3338C13.2904 48.971 10.5495 47.1214 8.21502 44.785C5.88052 42.4486 4.03093 39.7078 2.66627 36.5625C1.3016 33.4173 0.621183 30.0631 0.625016 26.5C0.625016 22.9273 1.30543 19.5703 2.66627 16.4289C4.02902 13.2855 5.8786 10.5476 8.21502 8.215C10.5514 5.88242 13.2923 4.03283 16.4375 2.66625C19.5847 1.30542 22.9389 0.625 26.5 0.625C30.0727 0.625 33.4297 1.30542 36.5711 2.66625C39.7145 4.029 42.4534 5.87858 44.7879 8.215C47.1224 10.5514 48.971 13.2894 50.3338 16.4289C51.6946 19.5722 52.375 22.9293 52.375 26.5C52.375 30.0612 51.6946 33.4153 50.3338 36.5625C48.971 39.7097 47.1214 42.4505 44.785 44.785C42.4486 47.1195 39.7106 48.9691 36.5711 50.3338C33.4316 51.6984 30.0746 52.3788 26.5 52.375Z" fill="url(#paint0_linear_182_1097)"/>
    <defs>
        <linearGradient id="paint0_linear_182_1097" x1="0.625" y1="26.5" x2="52.375" y2="26.5" gradientUnits="userSpaceOnUse">
            <stop stop-color="#1A387F"/>
            <stop offset="1" stop-color="#601386"/>
        </linearGradient>
    </defs>
</svg>
