<svg width="57" height="57" viewBox="0 0 57 57" fill="none" xmlns="http://www.w3.org/2000/svg">
<path d="M15.6227 36.7698C12.262 38.7695 3.45078 42.8545 8.81828 47.9679C11.4379 50.464 14.3568 52.25 18.0262 52.25H38.9689C42.6407 52.25 45.5595 50.464 48.1792 47.9679C53.5467 42.8545 44.7354 38.7695 41.3748 36.7698C37.4745 34.4657 33.0275 33.2502 28.4975 33.2502C23.9675 33.2502 19.5229 34.4657 15.6227 36.7698ZM39.1874 15.4375C39.1874 18.272 38.0614 20.9904 36.0571 22.9947C34.0528 24.999 31.3344 26.125 28.4999 26.125C25.6654 26.125 22.947 24.999 20.9427 22.9947C18.9384 20.9904 17.8124 18.272 17.8124 15.4375C17.8124 12.603 18.9384 9.88459 20.9427 7.8803C22.947 5.876 25.6654 4.75 28.4999 4.75C31.3344 4.75 34.0528 5.876 36.0571 7.8803C38.0614 9.88459 39.1874 12.603 39.1874 15.4375Z" stroke="#F6F6F6" stroke-width="2.5" stroke-linecap="round" stroke-linejoin="round"/>
</svg>
