<svg viewBox="0 0 24 24" fill="none" xmlns="http://www.w3.org/2000/svg">
    <path d="M9.135 2.5C6.469 2.56 4.912 2.814 3.848 3.875C2.916 4.803 2.605 6.107 2.5 8.2M14.866 2.5C17.532 2.56 19.089 2.814 20.153 3.875C21.085 4.803 21.396 6.107 21.5 8.2M14.866 21.5C17.532 21.44 19.089 21.185 20.153 20.125C21.085 19.197 21.396 17.892 21.5 15.8M9.135 21.5C6.469 21.44 4.912 21.185 3.848 20.125C2.916 19.197 2.605 17.892 2.501 15.8M8 17C9.838 14.405 14.119 14.263 16 17M14.5 9.5C14.5 10.163 14.2366 10.7989 13.7678 11.2678C13.2989 11.7366 12.663 12 12 12C11.337 12 10.7011 11.7366 10.2322 11.2678C9.76339 10.7989 9.5 10.163 9.5 9.5C9.5 8.83696 9.76339 8.20107 10.2322 7.73223C10.7011 7.26339 11.337 7 12 7C12.663 7 13.2989 7.26339 13.7678 7.73223C14.2366 8.20107 14.5 8.83696 14.5 9.5Z" stroke-width="1.5" stroke-linecap="round" stroke-linejoin="round"/>
</svg>
