<svg viewBox="0 0 24 24" fill="none" xmlns="http://www.w3.org/2000/svg">
    <path d="M11.08 13.152L8 7L13.42 11.28C14.19 11.888 14.194 13.047 13.428 13.66C13.2485 13.8038 13.0391 13.9058 12.8152 13.9585C12.5913 14.0111 12.3584 14.0132 12.1336 13.9646C11.9088 13.9159 11.6976 13.8177 11.5155 13.6772C11.3335 13.5366 11.185 13.3572 11.081 13.152" stroke="#F6F6F6" stroke-width="1.5" stroke-linecap="round" stroke-linejoin="round"/>
    <path d="M5.00001 4.81991C4.04829 5.75278 3.29264 6.86647 2.77745 8.09553C2.26226 9.32459 1.99794 10.6442 2.00001 11.9769C2.00001 17.5129 6.47701 21.9999 12 21.9999C17.523 21.9999 22 17.5129 22 11.9769C22.0016 9.66666 21.2049 7.42681 19.7447 5.63656C18.2844 3.84631 16.2504 2.61565 13.987 2.15291C13.151 1.98291 12.733 1.89891 12.367 2.19991C12 2.49991 12 2.98691 12 3.95991V4.96191" stroke="#F6F6F6" stroke-width="1.5" stroke-linecap="round" stroke-linejoin="round"/>
</svg>
